<svg version="1.1" xmlns="http://www.w3.org/2000/svg" xmlns:xlink="http://www.w3.org/1999/xlink" width="118.28345" height="55.18083" viewBox="0,0,118.28345,55.18083"><g transform="translate(-149.24731,-71.90559)"><g data-paper-data="{&quot;isPaintingLayer&quot;:true}" fill="none" fill-rule="nonzero" stroke="none" stroke-width="0.5" stroke-linecap="butt" stroke-linejoin="miter" stroke-miterlimit="10" stroke-dasharray="" stroke-dashoffset="0" font-family="none" font-weight="none" font-size="none" text-anchor="none" style="mix-blend-mode: normal"><path d="M267.38498,114.02734c-0.74957,2.38498 -3.13455,1.63542 -3.13455,1.63542l-1.0182,-1.61722c-2.73544,-2.73544 -4.30824,-6.30824 -7,-9c-0.03385,-0.58798 -0.97494,-0.67991 -1.5228,-0.89606c-1.57656,-0.62202 -4.37105,-0.70095 -6.10309,-0.44635c-3.66221,0.53833 -6.97898,2.4734 -10.60634,3.07464c-4.16693,0.69067 -11.42196,0.66125 -15.29057,-0.62829c-1.7873,-0.67494 -2.88102,-1.68613 -4.5,-2.5c-2.46676,-1.24006 -5.14632,-1.89011 -7.59618,-3.29158c-2.3757,-1.35905 -4.82048,-3.11028 -7.61325,-3.58013c-4.96252,-0.83488 -9.92991,-1 -15,-1c-2.83867,0 -5.9837,0.33695 -8.79057,-0.12829c-0.78107,-0.12946 -1.42868,-0.74036 -2.20943,-0.87171c-1.35643,-0.2282 -2.79133,0.09918 -4.11803,-0.26393c-2.60148,-0.71201 -4.41997,-2.6076 -6.38197,-4.23607c-3.41466,-2.83418 -6.1047,-4.90011 -8.58013,-8.61325c0,0 -1.38675,-2.08013 0.69338,-3.46688c2.08013,-1.38675 3.46688,0.69338 3.46688,0.69338c2.18492,3.27739 4.40826,4.86869 7.41987,7.38675c1.89476,1.58424 3.1242,2.99329 5.61803,3.76393c0.60522,0.18702 1.25703,-0.36752 1.88197,-0.26393c1.30056,0.21557 2.49053,0.90958 3.79057,1.12829c2.12566,0.35761 5.01716,-0.12829 7.20943,-0.12829c4.44921,0 8.23531,0.43212 12.60634,1.07464c3.09054,0.4543 6.24102,0.58737 9.18423,2.05365c3.32007,1.65402 6.69551,3.35374 10,5c1.58133,0.7878 2.77169,2.10146 4.5,2.5c3.41585,1.13862 10.06212,0.98532 13.70943,0.37171c1.67598,-0.28196 3.5335,-1.39241 5.20943,-1.87171c5.53359,-1.58254 11.86858,-2.20048 16.55834,1.60394c2.71329,2.71329 4.27816,6.27816 7,9l-1.0182,0.38278c0,0 2.38498,0.74957 1.63542,3.13455z" fill="#000000"/><path d="M171.70483,90.28292c-0.20483,-0.53355 -0.20483,-1.00515 -0.20483,-1.00515c-1.06285,0.18339 -2,1.08233 -2,0v-1.5c0,-2.57596 -0.91371,-7.63678 0.62829,-9.79057c2.86712,-4.00464 4.8277,-4.77196 8.24342,0.08114c0.43306,0.6153 -0.77079,1.60958 -0.87171,2.20943c-0.4909,2.9179 -1,6.04716 -1,9c0,0 0,2.5 -2.5,2.5c-1.41418,0 -2.02839,-0.79996 -2.29517,-1.49485c-0.06865,0.01422 -0.137,0.02727 -0.20483,0.03897c0,-3.00572 0.51948,-7.14505 1,-10.04412c0.12946,-0.78107 0.40242,-1.53175 0.62829,-2.29057c0.15036,-0.50514 0.17948,-1.91839 0.5,-1.5c0.61199,0.79886 0.99149,1.89229 0.92107,2.90693c0.12024,0.03116 0.22971,0.08705 0.32235,0.17421c0.38386,0.36115 -0.41256,0.98026 -0.5,1.5c-0.33455,1.98857 0.12829,4.647 0.12829,6.70943v1.5c0,0 -1.45496,0.72748 -2.79517,1.00515z" fill="#ff0000"/><path d="M185.76777,109.04554c-0.71408,1.75931 -5.07382,2 -5.53553,2c-1.55139,0 -2.14877,-2.33028 -2.73223,-3.76777c-0.37609,-0.92658 0,-2 0,-3c0,-2.33333 0,-4.66667 0,-7c0,0 0,-2.49988 2.49982,-2.5c0.4561,-0.60722 1.18227,-1 2.00018,-1c0.69036,0 1.31536,0.27982 1.76777,0.73223l0,0l2,2l-0.30812,0.30812c1.58884,3.56128 1.7689,8.62844 0.30812,12.22741z" fill="#7bff00"/><path d="M196.71438,92.6993c-0.21197,0.05032 -0.4491,0.07847 -0.71438,0.07847c-2.5,0 -2.5,-2.5 -2.5,-2.5c0,-4.43086 -0.28735,-8.54364 1.12829,-12.79057c0.33333,-1 0.25464,-2.25464 1,-3c0.87637,-0.87637 2.00135,-1.47276 3.08114,-2.08114c2.38748,-1.34517 2.99151,0.19192 5.16228,2.58114c1.60219,1.76343 0.62829,7.48849 0.62829,9.79057c0,3.03551 0.14217,4.55508 -1.41987,7.38675c-0.29026,0.52618 -0.40578,1.41048 -1,1.5c-0.50908,0.0767 -3.95615,0.25487 -5.36575,-0.96522zM200.31968,76.12262c0.02802,0.01514 0.05539,0.0306 0.08213,0.04638c0.03959,-0.12123 0.0478,-0.17856 -0.0301,-0.10066c-0.01781,0.01781 -0.03514,0.0359 -0.05202,0.05428z" fill="#ff0000"/><path d="M204.39038,105.19443c-0.05268,-0.04658 -0.10541,-0.09616 -0.15814,-0.14889c-1.76777,-1.76777 0,-3.53553 0,-3.53553l1.15348,1.32997c0.06271,-0.67299 0.11429,-1.23644 0.11429,-1.5622c0,-0.31597 0.05862,-0.61826 0.16558,-0.89657c0.24366,-0.71716 0.84591,-1.60343 2.33442,-1.60343c1.48852,0 2.09076,0.88627 2.33442,1.60343c0.05593,0.14553 0.09864,0.29762 0.12667,0.4548c0.17357,-0.03813 0.35389,-0.05823 0.53891,-0.05823c1.38071,0 2.5,1.11929 2.5,2.5v1.5c0.28683,0.1721 0,4.06232 0,4.5c0,1 0.59178,2.1939 0,3c-3.70506,5.04683 -8.32434,3.36732 -10.37171,-1.70943c-0.69911,-1.73354 -0.62829,-3.45538 -0.62829,-5.29057z" fill="#48ff00"/><path d="M233.3234,100.17181c-0.00814,0.00471 -0.0163,0.0094 -0.02446,0.01408c0.12523,0.29694 0.20106,0.6565 0.20106,1.09187c0,2.5 -2.5,2.5 -2.5,2.5l-1.90368,-2.66515c-0.21762,-0.1854 -0.41856,-0.37487 -0.60403,-0.56819c0.005,0.24835 0.00771,0.49295 0.00771,0.73335c0,0 0,2.5 -2.5,2.5c-2.5,0 -2.5,-2.5 -2.5,-2.5c0,-3.66667 0,-7.33333 0,-11c0,-1.33333 -0.45531,-2.74682 0,-4c1.11125,-3.05859 4.33228,-5.7114 7.20943,-6.87171c0.48879,-0.19712 1.00564,-0.68271 1.5,-0.5c1.43815,0.53153 2.68402,1.51408 3.8707,2.48496c2.24783,1.83906 1.41987,6.30143 1.41987,8.88675c0,2.90686 -0.93258,7.42756 -3.41987,9.38675c-0.18462,0.14542 -0.37812,0.27784 -0.57797,0.40075c-0.00142,0.07056 -0.00215,0.14139 -0.00215,0.2125z" fill="#ff0000"/><path d="M250.5,123.27777c0.14302,0.15527 0.12957,-0.18506 0.15308,-0.52388c-0.10635,-0.01476 -0.21055,-0.03622 -0.31218,-0.06392c0.02607,0.28551 0.07568,0.49723 0.15911,0.5878zM252.15147,122.9961c0.25918,0.24269 0.39781,0.39891 0.23528,0.20154c-0.06396,-0.07767 -0.14444,-0.14351 -0.23528,-0.20154zM249.77098,102.43773c1.26825,-0.73052 3.0985,-1.45723 3.60073,0.04947c0.79057,2.37171 0.12829,0.79057 0.12829,0.79057v1.96447l0.73223,-0.73223l1.17911,1.17911c1.0306,0.17672 2.05663,0.43824 3.08865,0.58865v3h-0.02252c-0.10007,3.21248 -0.54711,6.11458 -1.60578,9.29057c-0.90208,1.72168 -0.18197,3.50799 -1.10394,5.4772c-0.29983,0.64039 -0.87734,1.16489 -1.5,1.5c-4.48206,2.41224 -6.19992,2.23279 -8.76777,-2.26777c-0.44943,-0.7877 0,-3.56984 0,-4.5c0,-4.83333 0,-9.66667 0,-14.5c0,0 0,-2.5 2.5,-2.5c0.84217,0 1.40064,0.2837 1.77098,0.65996z" fill="#3dff00"/><path d="M162.87171,86.56834c-0.99144,2.62542 -3.13988,7.13988 -5.08114,9.08114c-1.88307,1.88307 -4.08304,1.29993 -5.78687,-0.07307c-0.08624,-0.04081 -0.17404,-0.08707 -0.26338,-0.13919c-0.65801,-0.38384 -0.99855,-0.85122 -1.15401,-1.31559c-0.46908,-0.60559 -0.8434,-1.2454 -1.08631,-1.84386c-0.85971,-2.11809 0.66398,-6.00226 1.73223,-7.76777c1.23686,-2.04417 3.45236,-2.08933 5,-3l2,-2c0.21486,-0.21486 0.46864,-0.39079 0.74986,-0.5163c0.67937,-0.33516 1.73252,-0.53685 2.78567,0.5163c0.77696,0.77696 0.87095,1.55391 0.73223,2.18078l0,1.98776c0.50456,0.87881 0.69566,1.91793 0.37171,2.88979z" fill="#3dff00"/></g></g></svg>