<svg version="1.1" xmlns="http://www.w3.org/2000/svg" xmlns:xlink="http://www.w3.org/1999/xlink" width="252.45091" height="63.94488" viewBox="0,0,252.45091,63.94488"><g transform="translate(-86.05727,-224.02939)"><g data-paper-data="{&quot;isPaintingLayer&quot;:true}" fill="none" fill-rule="nonzero" stroke="none" stroke-width="0.5" stroke-linecap="butt" stroke-linejoin="miter" stroke-miterlimit="10" stroke-dasharray="" stroke-dashoffset="0" font-family="none" font-weight="none" font-size="none" text-anchor="none" style="mix-blend-mode: normal"><path d="M338.47871,260.60337c-0.3256,2.4787 -2.8043,2.15312 -2.8043,2.15312l-0.6744,0.02129c-1.5,0 -3,0 -4.5,0c-2.48059,-0.00005 -6.5041,-0.55893 -8.73224,0.26777c-1.13171,0.41989 -1.64983,1.79208 -2.64973,2.4683c-2.00396,1.35528 -4.42421,1.99771 -6.35027,3.5317c-2.35944,1.87915 -4.11331,3.38008 -6.97719,4.60394c-3.74072,1.59857 -7.82002,1.12829 -11.79057,1.12829c-12.4694,0 -25.41731,-1.59605 -36.24034,-8.32939c-2.84616,-1.77069 -6.13929,-3.01471 -8.52742,-5.40284c0.28747,-0.60976 -1.19673,-0.63629 -1.83857,-0.84242c-2.89955,-0.93119 -3.2896,-1.28575 -5.16143,-3.15758c-0.37307,-0.37307 -0.35892,-1.12265 -0.83857,-1.34242c-1.41392,-0.64784 -3.05517,-0.64393 -4.5117,-1.18929c-1.95024,-0.73022 -3.49588,-1.67085 -5.4883,-2.31071c-1.06849,-0.34314 -2.16514,-0.64104 -3.16143,-1.15759c-0.51214,-0.26553 -0.52562,-1.1035 -1.02281,-1.39606c-2.90349,-1.70849 -7.92299,-2.87171 -11.20943,-2.87171c-4.36822,-0.20082 -8.59576,-1.5639 -13,-2c-5.74344,-0.56871 -11.40273,0.21671 -17,1c-4.95749,0.69376 -10.49275,0 -15.5,0c-9.51429,-0.11646 -19.23265,2.46392 -28.5,4c-6.28819,1.04227 -13.61786,0 -20,0c-4.75601,-0.21865 -11.63088,-2.22913 -15.76776,-4.73223c-3.06851,-1.85665 -4.83815,-5.44848 -6.31236,-8.38102c-1.38953,-2.76408 -2.41988,-4.26967 -2.41988,-7.38675c0,0 0,-2.5 2.5,-2.5c2.5,0 2.5,2.5 2.5,2.5c0,1 -0.33839,2.059 0,3c0.25472,0.70832 1.24447,0.9395 1.58012,1.61325c1.44944,2.90941 2.59776,5.80081 5.68764,7.61899c1.03043,0.60634 3.71161,0.959 5.02281,1.39606c2.25885,0.75295 4.82726,2.12439 7.20943,1.8717c6.37404,0 13.72258,1.05609 20,0c2.42947,-0.40873 4.84751,-1.6731 7.41261,-1.93203c1.81781,-0.18349 3.66,0.08428 5.48073,-0.06758c5.24821,-0.43775 10.30761,-1.95189 15.60666,-2.00039c4.99149,0 10.56316,0.7257 15.5,0c5.52287,-0.81184 11.31737,-1.56269 17,-1c2.564,0.25388 5.48211,0.57731 8.01567,1.00005c1.87073,0.31214 3.10578,1.19922 4.98433,0.99995c3.69063,0 9.50499,1.1403 12.79057,3.1283c1.12801,0.68252 1.77859,2.05476 2.97719,2.60394c0.86643,0.39699 1.94604,0.00822 2.83857,0.34241c1.56547,0.58615 2.94691,1.60133 4.5117,2.18929c1.23255,0.46312 2.25554,0.17155 3.4883,0.81071c1.99615,1.03495 3.22477,3.77023 5.16143,4.65759c0.86643,0.39699 1.99248,-0.09626 2.83857,0.34241c0.80605,0.41791 1.44095,1.10506 2.16143,1.65759c2.04732,2.04732 5.01145,3.06701 7.47258,4.59716c6.38959,3.97259 15.54332,6.9316 23.15285,7.69973c3.43869,0.34711 7.14083,-0.02913 10.60681,-0.02913c2.52648,0 5.50893,0.41909 8,0c3.69214,-0.62115 6.22213,-3.60281 9.11325,-5.58012c1.82968,-1.25136 3.93056,-1.95799 5.76871,-3.15594c0.57022,-0.37162 0.73185,-1.24741 1.35027,-1.5317c3.95042,-1.81608 8.05395,-1.73215 12.26776,-1.73224c1.5,0 3,0 4.5,0l1.3256,0.0213c0,0 2.4787,0.3256 2.15311,2.8043z" fill="#000000"/><path d="M113.07119,236.90497c-0.02965,-0.0511 -0.05039,-0.10423 -0.06357,-0.15913c-0.10702,0.08358 -0.19556,0.17858 -0.23986,0.2997c-0.04634,0.12672 0.11703,-0.01055 0.30343,-0.14057zM113.19803,235.8373c0.01228,-0.02905 0.0247,-0.05819 0.03715,-0.0874c-0.08575,-0.00473 -0.16555,0.00241 -0.23519,0.02787c-0.10659,0.03898 0.01928,0.04551 0.19803,0.05953zM116.23113,244.11995c-2.4467,0.57579 -6.91531,-2.02636 -7.73113,-2.84218c-0.7071,-0.70711 0,-2 0,-3c0,-2.3785 1.65211,-9.47631 6,-7.5c0.79997,0.36362 1.60786,0.75439 2.35904,1.22246c0.30616,-0.13795 0.68131,-0.22246 1.14096,-0.22246c2.5,0 2.5,2.5 2.5,2.5v1c0,1.13269 0.18538,2.61112 -0.05926,3.87336c0.1071,0.85147 0.05926,1.78616 0.05926,3.12664c0,0 0,2.5 -2.5,2.5c-0.84057,0 -1.39852,-0.28263 -1.76887,-0.65782z" fill="#ff0000"/><path d="M139.5,239.77777c0,-2.57596 -0.91371,-7.63678 0.62829,-9.79057c0.83568,-1.16723 1.71452,-2.3599 2.87171,-3.20943c0.40305,-0.29589 1.00579,-0.0759 1.5,0c3.19661,0.49094 4.81143,1.22861 6,4.5c0.45531,1.25318 0,2.66667 0,4c0,3.33333 0,6.66667 0,10c0,0 0,1.82208 -1.55554,2.35516c0,0.10526 0,0.20913 0,0.31153c0,0 0,2.5 -2.5,2.5c-2.5,0 -2.5,-2.5 -2.5,-2.5c0,-0.69841 0,-1.39682 0,-2.09523c-0.45832,0.5664 -1.1591,0.92854 -1.94446,0.92854c-1.38071,0 -2.5,-1.11929 -2.5,-2.5c0,-0.64458 0,-1.9124 0,-3c0,-0.59969 0,-1.14458 0,-1.5z" fill="#ff0000"/><path d="M189.67834,241.46345c-0.72923,0.83816 -1.53813,1.60332 -2.46891,2.18603c-0.44673,0.27967 -1.07146,-0.19319 -1.5,-0.5c-1.46989,-1.05236 -3.20943,-2.56394 -3.20943,-4.37171c0,-2.68724 -0.31181,-5.63536 0.12829,-8.29057c0.95362,-5.75334 6.23462,-8.84651 10.87171,-4.20943c0.70711,0.70711 0,2 0,3c0,3.33333 0,6.66667 0,10c0,0 0,2.5 -2.5,2.5c-0.55441,0 -0.98588,-0.12295 -1.32166,-0.31432z" fill="#ff0000"/><path d="M226.76712,235.87227c-0.12677,0.16568 -0.25135,0.33177 -0.38037,0.48562c-0.06384,0.07613 0.09895,0.0773 0.25284,0.09541l0.09358,-0.28075c0.01688,-0.09616 0.02626,-0.19808 0.03395,-0.30028zM226.90368,246.66474c-3.1233,1.69928 -6.40368,-1.00714 -6.40368,-4.88697c0.36699,-6.5523 4.43493,-14.44702 12.26777,-11.26777c3.32155,1.34818 3.04575,5.95908 2,8.53553c-0.17729,0.4368 -0.53631,0.91506 -1,1c-0.2666,0.04884 -0.21021,-1.03263 -0.26777,-0.76777c-0.71477,3.28929 -0.23973,5.27526 -2.73223,7.76777c0,0 -1.76777,1.76777 -3.53553,0c-0.12715,-0.12715 -0.23601,-0.2543 -0.32855,-0.38079z" fill="#ff0000"/><path d="M250.22004,253.28324l-1.13883,0.1749c-0.12829,0.1812 -0.2358,0.37508 -0.31344,0.5874c-0.08926,0.24408 0.59947,-0.49118 0.73223,-0.26777c0.38024,0.63988 -0.34093,2.48898 0.22541,0.8541c-0.03077,-0.06787 -0.03901,-0.14215 -0.01597,-0.22581c0.09066,-0.32925 0.53713,-0.28528 0.94164,-0.31489l0.0913,-0.0913c-0.26639,0.08289 -0.55142,0.14032 -0.61408,-0.01266c-0.09439,-0.23047 -0.02515,-0.46642 0.09175,-0.70396zM252.2879,258.80191c-1.58822,1.45481 -3.58316,1.71613 -6.05566,-0.75638c-0.57741,-0.92259 -1.32291,-1.75929 -1.73223,-2.76777c-0.60471,-1.48984 0.12752,-3.27792 0.73223,-4.76777c0.21696,-0.53453 1.1035,-0.52561 1.39606,-1.0228c0.72495,-1.23201 0.86393,-2.75417 1.60394,-3.9772c0.8568,-1.41604 3.52043,-3.52648 5.26777,-2.73223c1.4314,0.65063 2.88819,1.38819 4,2.5c0.35355,0.35355 0.01691,1.00029 0,1.5c-0.00289,0.08543 -0.00657,0.17337 -0.01103,0.26365c0.0073,0.0778 0.01103,0.15664 0.01103,0.23635c0,0.1975 -0.0229,0.38965 -0.06619,0.57394c-0.21611,2.55786 -0.88093,6.25953 -1.66604,8.19383c-0.35458,0.87359 -1.33333,1.33333 -2,2c0,0 0,0 0,0c0,0 -0.61387,0.61387 -1.47987,0.75638z" fill="#ff0000"/><path d="M275.09583,268.60953c-0.5463,0.75936 -1.16705,1.45857 -1.8864,2.03995c-0.40991,0.33129 -1,-0.33333 -1.5,-0.5c-1.06981,-0.95724 -2.3599,-1.71452 -3.20943,-2.87171c-0.59178,-0.8061 0,-2 0,-3c0,-4.49293 -0.69131,-8.42301 3.5,-11.5c1.35615,-0.9956 4.83613,0.4475 5.76777,1.73223c2.06782,2.85153 2.1488,6.20872 1.44943,9.50683l0.15451,0.0515l-0.39528,1.18585l0.79134,0.79134l-1.89335,1.89335c-0.45893,0.56727 -1.26957,1.13493 -2.56933,0.74103c-0.06532,-0.01886 -0.12954,-0.04032 -0.19254,-0.06424c-0.00559,-0.00204 -0.01116,-0.00409 -0.01671,-0.00615z" fill="#ff0000"/><path d="M302.62004,258.47803c0.29255,0.23961 0.58642,0.5062 0.87996,0.79974c0.70711,0.70711 0,2 0,3c0,3.26225 0.61592,7.59659 -3.20943,8.87171c-3.41002,0.55337 -4.93481,0.64632 -7.66228,-2.08114c-2.21325,-2.21325 -1.31014,-9.60083 -0.01504,-11.8707c0.2978,-0.52194 0.9505,-0.75678 1.5,-1c3.88589,-1.71997 5.60314,-1.71155 8.38675,2.08013c0.04726,0.06438 0.08698,0.13123 0.12004,0.20026z" fill="#ff0000"/><path d="M327.83825,259.5779c-1.04699,0.03935 -2.40504,-0.37417 -4.33825,-1.30013c-0.90188,-0.43198 0,-2 0,-3c0,-3.51994 -0.48457,-5.51543 2.5,-8.5c0.35355,-0.35355 1.02354,-0.15162 1.5,0c1.34433,0.42781 2.7345,0.87456 3.87171,1.70943c0.42485,0.3119 0.34964,0.99486 0.5,1.5c0.82196,2.76141 0.62829,5.43393 0.62829,8.29057c0,0.31597 -0.05862,0.61826 -0.16558,0.89657c-0.24366,0.71716 -0.84591,1.60343 -2.33442,1.60343c-1.21657,0 -1.84112,-0.59202 -2.16175,-1.19987z" fill="#ff0000"/><path d="M120.23223,249.51c1.76777,-1.76777 3.53553,0 3.53553,0l0.62367,0.62367c0.39622,0.24675 0.65082,0.59101 0.81443,0.93157c1.17718,0.20949 3.25707,0.32104 3.5619,0.44476c1.2782,0.5188 2.57754,4.43737 2.60394,4.55834c0.57457,2.63272 -3.68528,6.74722 -5.37171,7.70943c-1.74916,0.998 -4.16208,-0.99484 -5.5,-2.5c-0.44291,-0.49827 0,-1.33333 0,-2c0,-1.98816 0,-3.97631 0,-5.96447l-0.26777,-0.26777c0,0 -1.76777,-1.76777 0,-3.53553zM125.5,258.62629c0,0.0669 0,0.13381 0,0.20071c0.19962,0.04817 0.38334,0.05823 0.5,-0.04923c0.15162,-0.13966 -0.16934,-0.13011 -0.5,-0.15148z" fill="#29ff00"/><path d="M166.79057,242.90606c2.37171,0.79057 1.58114,3.16228 1.58114,3.16228l2,-1.58114c1.20056,3.60168 1.49288,7.48147 1.12829,11.29057c-0.09042,0.94471 -0.13755,3.64536 -1.41987,4.38675c-1.50059,0.86758 -3.13389,1.62279 -4.84789,1.88102c-0.46614,0.07023 -0.72326,-0.61837 -1,-1c-0.63894,-0.8811 -1.32291,-1.75929 -1.73223,-2.76777c-0.37609,-0.92658 0,-2 0,-3c0,-1 0,-2 0,-3c0,0 0,-4 0,-4c0,-0.31597 0.05862,-0.61826 0.16558,-0.89657c0.24366,-0.71716 0.84591,-1.60343 2.33442,-1.60343c0.09492,0 0.18623,0.0036 0.27408,0.01054l-1.64578,-1.30111c0,0 0.79057,-2.37171 3.16228,-1.58114z" fill="#29ff00"/><path d="M208.23607,247.3958c-0.08156,0.16312 -0.16907,0.30839 -0.26123,0.43755l2.52516,-0.55558c0,2.28069 0.74856,6.36745 -0.62829,8.29057c-0.83568,1.16723 -1.71452,2.3599 -2.87171,3.20943c-0.40305,0.29589 -1.00579,0.0759 -1.5,0c-3.59837,-0.55264 -5.01172,-1.35003 -5.87171,-5.29057c-0.22476,-1.02985 0.66667,-2 1,-3c0.65211,-1.95632 0.87171,-3.10485 0.87171,-5.20943c0,-0.31597 0.05862,-0.61826 0.16558,-0.89657c0.24366,-0.71716 0.84591,-1.60343 2.33442,-1.60343c1.48852,0 2.09076,0.88627 2.33442,1.60343c0.02026,0.05273 0.03879,0.10631 0.05551,0.16069l0.1912,0.5736l0.5369,-1.07379c0,0 2.23607,1.11803 1.11803,3.3541zM205.71266,250.97354c-0.10267,0.35679 -0.21617,0.72046 -0.34095,1.0948c-0.15818,0.47455 -0.31637,0.9491 -0.47455,1.42364c0.05881,0.00845 0.11155,0.04049 0.16064,0.08842c0.11795,-0.33444 0.51059,-0.73714 0.5705,-1.0932c0.0774,-0.46009 0.096,-0.97517 0.08437,-1.51366zM205.6148,254.1887c-0.06889,-0.00573 -0.13546,-0.01774 -0.19877,-0.03704c0.09775,0.16275 0.20762,0.30564 0.35173,0.35834c0.13076,0.04782 -0.01956,-0.12765 -0.15296,-0.3213z" fill="#29ff00"/><path d="M231.1197,250.76743c0.63301,-0.37476 1.41515,-0.42836 2.3803,0.01034c1.4314,0.65063 2.88819,1.38819 4,2.5c0.7759,0.7759 -0.25952,4.37614 -0.62829,5.29057c-2.10397,5.21708 -7.16852,7.06866 -10.24342,0.91886c-0.2357,-0.4714 0.33209,-1.00041 0.5,-1.5c0.31848,-0.94759 0.58537,-1.90464 0.83426,-2.86741l0.59941,-2.39763c0.07202,-0.31736 0.20441,-0.61178 0.38446,-0.87056c0.36027,-0.56375 1.02522,-1.19276 2.17328,-1.08418z" fill="#29ff00"/><path d="M255.6148,275.1887c-0.06889,-0.00573 -0.13546,-0.01774 -0.19877,-0.03704c0.09775,0.16275 0.20762,0.30564 0.35173,0.35834c0.13076,0.04782 -0.01956,-0.12765 -0.15296,-0.3213zM254.95016,263.92457c0.497,-0.69275 1.25942,-1.1468 2.54984,-1.1468c1.33333,0.83333 2.88819,1.38819 4,2.5c0.70711,0.70711 0,2 0,3c0,4.21759 -0.82259,8.80028 -4.5,11.5c-0.40305,0.29589 -1.00579,0.0759 -1.5,0c-3.59837,-0.55264 -5.01172,-1.35003 -5.87171,-5.29057c-0.22476,-1.02985 0.66667,-2 1,-3c0.65211,-1.95632 0.87171,-3.10485 0.87171,-5.20943c0,0 0,-2.5 2.5,-2.5c0.36832,0 0.68238,0.05426 0.95016,0.1468zM255.22228,273.51663c-0.10837,0.32512 -0.21675,0.65024 -0.32512,0.97535c0.09028,0.01297 0.16625,0.08155 0.2367,0.17783c0.0677,-0.31509 0.24154,-0.82428 0.44786,-1.38193c-0.10689,0.08472 -0.22622,0.16194 -0.35943,0.22875z" fill="#29ff00"/><path d="M281.709,273.78969c1.09578,-0.8499 2.4444,-1.19778 3.58157,-0.38363c1.16723,0.83568 2.3599,1.71452 3.20943,2.87171c0.59178,0.8061 0,2 0,3c0,3.51994 0.48457,5.51543 -2.5,8.5c-0.35355,0.35355 -1.02354,0.15162 -1.5,0c-1.34433,-0.42781 -2.7345,-0.87456 -3.87171,-1.70943c-0.42485,-0.3119 -0.34964,-0.99486 -0.5,-1.5c-0.82196,-2.76141 -0.62829,-5.43393 -0.62829,-8.29057c0,0 0,-2.30203 2.209,-2.48808z" fill="#29ff00"/><path d="M313,266.77777c1.09632,0 1.71188,0.48077 2.05749,1.02065l-0.26692,-0.89236c4.80656,1.60219 7.08742,6.05234 5.9772,11.13948c-0.10051,0.46056 -0.59067,0.76617 -1,1c-3.49341,1.9956 -5.13873,2.02355 -8.13948,-0.9772c-1.43095,-1.43095 -1.12829,-4.92395 -1.12829,-6.79057c0,0 0,-0.85368 0.49885,-1.56333l-0.49885,-0.43667c0,0 0,-2.5 2.5,-2.5zM315.55096,274.43091c0.10481,0.81596 0.33564,1.57118 0.82075,2.05629c0.20727,0.20727 -0.1951,-0.54286 -0.17604,-0.90674c-0.02178,-0.00177 -0.04422,-0.00575 -0.06738,-0.01213c-0.23323,-0.06422 -0.41623,-0.52805 -0.57733,-1.13743z" fill="#29ff00"/><path d="M101.5,236.27777c-1.33333,1 -2.44444,0.44444 -3.03704,-0.03704l0.53704,0.53704c-0.85,0 -1.70001,0 -2.55001,0c-0.14887,0.73339 -0.61879,1.35021 -1.25667,1.69736c-0.64706,0.38464 -1.67361,0.66782 -2.79733,-0.27969c-0.01359,-0.01138 -0.02706,-0.0229 -0.0404,-0.03456c-0.5256,-0.45617 -0.77588,-0.9331 -0.86406,-1.3831l-0.24377,0l-0.63451,1.58013c-1.91215,-1.27477 -2.69794,-1.59958 -4.11325,-4.08013c-1.76238,-3.08884 2.1492,-6.54584 4.5,-7.5c1.04429,-0.42386 2.61495,-0.44025 4.22863,-0.34295l0.15812,-0.23718l0.4138,0.27586c1.55643,0.11552 3.0999,0.30426 4.19945,0.30426c0,0 2.5,0 2.5,2.5c0,2.5 -2.5,2.5 -2.5,2.5c-0.28141,0 -0.58593,-0.01091 -0.90804,-0.02899c-0.01125,0.01634 -0.02267,0.03241 -0.03425,0.04823l2.94229,0.98076c0,0 1.5,2 -0.5,3.5z" fill="#29ff00"/></g></g></svg>