<svg version="1.1" xmlns="http://www.w3.org/2000/svg" xmlns:xlink="http://www.w3.org/1999/xlink" width="214" height="55.91633" viewBox="0,0,214,55.91633"><g transform="translate(-84.5,-111.72034)"><g data-paper-data="{&quot;isPaintingLayer&quot;:true}" fill="none" fill-rule="nonzero" stroke="none" stroke-width="0.5" stroke-linecap="butt" stroke-linejoin="miter" stroke-miterlimit="10" stroke-dasharray="" stroke-dashoffset="0" font-family="none" font-weight="none" font-size="none" text-anchor="none" style="mix-blend-mode: normal"><path d="" fill="#000000"/><path d="M101,153.77777h1c0,0 0.38531,0 0.8534,0.15127c0.42696,-0.37971 0.87453,-0.73163 1.35603,-1.02298c0.45093,-0.27284 0.97297,-0.49537 1.5,-0.5c0.17621,-0.00155 0.07542,0.59819 0.21044,0.48496c2.5654,-2.15127 2.5202,-4.66832 6.08013,-6.11325c0.48003,-0.19484 0.99948,-0.1878 1.5277,-0.13576c0.74095,-0.42602 1.49075,-0.84132 2.08555,-1.44437c1.67595,-1.69921 2.53325,-4.27707 4.61898,-5.68764c2.37743,-1.60785 5.11539,-2.50793 7.38102,-4.31236c4.27039,-3.40111 8.20034,-6.10139 13.88675,-6.41987c5.16667,0 10.33333,0 15.5,0c2.33474,0 5.71608,-0.6251 8,0c4.78655,1.31005 8.31627,4.14877 12.5,6.5c1.6411,0.92229 3.68763,1.35196 5.41184,2.17893c3.71893,1.80306 7.73941,3.24043 11.20619,5.58501c0.99989,0.67622 1.51607,2.05374 2.64973,2.4683c0.24408,0.08926 -0.49118,-0.59947 -0.26777,-0.73223c0.42984,-0.25542 1.00483,-0.0693 1.5,0c2.66589,0.37307 5.17965,1.7701 7.79057,2.12829c1.9789,0.27149 4.19074,-0.41079 6.20943,-0.12829c2.1197,0.29663 4.26116,0.96118 6.29057,1.62829c1.84127,0.61376 2.79952,0.09203 4.70943,0.37171c3.57284,0.52319 6.9801,1.5416 10.60634,2.07464c1.982,0.29135 4.38124,-0.07464 6.39366,-0.07464c5.16667,0 10.33333,0 15.5,0c3.96437,0 6.9068,-1.24142 10.70943,-1.87171c1.24723,-0.20673 2.58268,0.24497 3.79057,-0.12829c1.0715,-0.33111 1.80026,-1.44001 2.88197,-1.73607c1.3267,-0.36311 2.82621,0.20847 4.11803,-0.26393c0.25455,-0.09309 -0.8166,-0.00116 -0.76777,-0.26777c0.24397,-1.33185 3.99834,-3.99834 5,-5l2.66491,-1.73012c0,0 2.49788,-0.10285 2.60074,2.39503c0.10285,2.49788 -2.39503,2.60074 -2.39503,2.60074l0.66491,0.26988c-2.29671,2.29671 -4.69502,5.48504 -7.76777,6.73223c-0.58695,0.23824 -1.27674,-0.45096 -1.88197,-0.26393c-1.78231,0.55076 -3.31874,1.77148 -5.11803,2.26393c-0.71155,0.19475 -1.48194,-0.25068 -2.20943,-0.12829c-4.27651,0.71947 -7.83697,2.12829 -12.29057,2.12829c-7.51262,0 -15.67827,0.96485 -23.10634,-0.07464c-3.13798,-0.43913 -6.33842,-1.50621 -9.39366,-1.92536c-2.16826,-0.29746 -4.15154,0.08472 -6.29057,-0.62829c-4.36355,-1.48026 -8.04913,-0.84823 -12.5,-1.5c-2.09235,-0.30639 -4.09458,-1.56083 -6.20943,-1.87171c-1.59079,-0.23384 -3.27792,-0.12752 -4.76777,-0.73223c-0.63066,-0.25598 -0.78004,-1.16008 -1.35027,-1.5317c-3.55375,-2.31602 -7.39513,-3.73687 -11.15143,-5.55804c-2.01889,-0.9927 -4.27057,-1.57654 -6.23054,-2.67803c-3.10452,-1.74472 -6.03152,-4.42818 -9.5,-5.5c-2.19727,-0.67899 -5.74041,0 -8,0c-5.16667,0 -10.33333,0 -15.5,0c-4.14911,-0.75032 -8.25167,3.28337 -11.11325,5.58013c-2.0278,1.62755 -4.51534,2.31667 -6.61898,3.68764c-2.27332,1.48155 -3.50436,4.4529 -5.38102,6.31236c-0.30559,0.30279 -0.64866,0.55965 -1.00909,0.79523c-0.17717,0.57336 -0.52543,0.94438 -0.90194,1.18445l-1.70795,1.70795l-1.26423,-1.26423c-0.0069,-0.00114 -0.01381,-0.00232 -0.02072,-0.00354h-1.48282c-0.25455,0.09309 0.8166,0.00116 0.76777,0.26777c-0.03717,0.20289 -2.55804,3.5169 -2.68764,3.61898c-2.19861,1.7318 -3.55897,1.62763 -5.31236,3.38102l-1.45752,0.36138c0,0 -1.9981,1.2296 -3.31419,-0.62915c-1.79765,0 -3.71537,0 -5.60397,0c0.06627,-0.21417 0.09475,-0.33772 0.09475,-0.33772l0.5,-1.5c0.22813,-1.04978 0.49063,-2.10282 0.69127,-3.16228c1.77397,0 3.54793,0 5.3219,0z" fill="#000000"/><path d="M105.21989,140.68797c-0.18101,-0.15258 -0.4049,-0.33506 -0.63737,-0.52319c-0.01671,0.36319 -0.20702,0.77252 -0.08252,1.11299c0.09309,0.25455 0.00116,-0.8166 0.26777,-0.76777c0.15337,0.02809 0.30401,0.08936 0.45212,0.17797zM104.17511,139.83571c-0.04013,-0.03242 -0.07991,-0.06458 -0.11917,-0.09636c-0.13432,0.08939 -0.24519,0.18865 -0.28817,0.30619c-0.05486,0.15001 0.18415,-0.0699 0.40735,-0.20983zM106.50182,150.00625l-0.26959,0.03929c-0.33333,-0.33333 -0.66667,-0.66667 -1,-1c-1.87465,-1.97273 -4.71898,-5.27138 -5.73223,-7.76777c-1.82004,-4.48411 2.78329,-6.76777 6.26777,-6.76777c0.94281,0 1.33333,1.33333 2,2c4.08442,4.08442 3.73223,8.34866 3.73223,13.76777c0,0 0,2.5 -2.5,2.5c-2.5,0 -2.5,-2.5 -2.5,-2.5c0,-0.08989 0.00064,-0.18042 0.00182,-0.27153z" fill="#ff0000"/><path d="M133.46293,123.2607c0.01443,0.0103 0.0284,0.02045 0.0419,0.03041c-0.0016,-0.00446 -0.00321,-0.0089 -0.00484,-0.01333c-0.01792,-0.049 -0.02898,-0.04888 -0.03707,-0.01707zM128.12829,121.9872c0.83568,-1.16723 1.71452,-2.3599 2.87171,-3.20943c0.40305,-0.29589 1.00579,-0.0759 1.5,0c3.33246,0.5118 4.66775,1.21767 6,4.5c0.58025,1.42958 0,4.43707 0,6c0,0.31597 -0.05862,0.61826 -0.16558,0.89657c-0.24366,0.71716 -0.84591,1.60343 -2.33442,1.60343c-1.09878,0 -1.71463,-0.48293 -2.05981,-1.02428l-1.39485,-1.39485c-0.75838,0.60514 -1.61135,1.14957 -2.3131,1.6869l-2,-2l0.26502,-0.26502c-1.09185,-2.05816 -1.90629,-4.64605 -0.36896,-6.79332z" fill="#ff0000"/><path d="M166.43366,112.22969c1.16819,0.81774 1.20364,1.83537 1.01849,2.55882c0.03139,0.15822 0.04785,0.32182 0.04785,0.48926v3l-0.03678,0c-0.17295,3.46711 -0.94517,6.35156 -2.09151,9.79057c0,0 -0.27829,0.83488 -1,1.34885v1.65115c0,0 -0.79057,2.37171 -3.16228,1.58114c-2.37171,-0.79057 -1.58114,-3.16228 -1.58114,-3.16228v-0.31236c-0.43745,0.37581 -1.00635,0.60293 -1.62829,0.60293c-1.38071,0 -2.5,-1.11929 -2.5,-2.5v-1.5c-0.85749,-0.5145 0,-2 0,-3c0,-0.93016 -0.44943,-3.7123 0,-4.5c1.37781,-2.41483 3.81927,-3.85481 5.73223,-5.76777l1.71969,0.33411c0,0 1.43366,-2.04808 3.48174,-0.61442z" fill="#ff0000"/><path d="M186.20943,128.90606c0.3119,-0.42485 0.97429,-0.46254 1.5,-0.5c3.95263,-0.28164 5.27326,0.13346 6.79057,3.87171c1.09633,2.70108 -1.24106,7.16256 -2.11143,9.7403c-0.09552,0.30855 -0.24919,0.59155 -0.4482,0.8362c-0.44537,0.59297 -1.2708,1.23916 -2.63529,0.82566c-0.06532,-0.01886 -0.12954,-0.04032 -0.19254,-0.06424c-0.64386,-0.23494 -1.04094,-0.59109 -1.2797,-0.97999c-0.26051,0.09202 -0.54083,0.14208 -0.83285,0.14208c-0.49527,0 -0.95691,-0.14402 -1.34531,-0.39247c-0.66882,-0.03477 -1.15469,-0.32822 -1.15469,-1.10753v-1.5c0,-0.34857 -0.06443,-0.72382 -0.14277,-1.10484c-0.3348,-0.30079 -0.34427,-0.78579 -0.25125,-1.32881c-0.06535,-0.57494 -0.01881,-1.10355 0.33585,-1.50452c0.00095,-0.00528 0.00189,-0.01055 0.00282,-0.01582c-0.00759,-0.68362 0.00167,-1.35908 0.05535,-2.02592v-0.5201c0,-0.36658 0.0789,-0.71472 0.22064,-1.02839c0.24501,-1.14277 0.69204,-2.25803 1.48879,-3.34332zM189.666,132.91987c-0.03603,-0.22114 -0.09051,-0.43567 -0.166,-0.64209c-0.05162,-0.14115 -0.04635,0.12531 -0.07686,0.38242c0.0084,0.03307 0.01615,0.06641 0.02322,0.1c0.01804,0.00521 0.03593,0.01107 0.05364,0.01758c0.0807,0.02966 0.13365,0.07869 0.166,0.14209z" fill="#ff0000"/><path d="M209.92641,147.94143c-0.36336,0.46035 -0.95689,0.83634 -1.92641,0.83634c-1.48852,0 -2.09076,-0.88627 -2.33442,-1.60343c-0.10696,-0.27831 -0.16558,-0.58059 -0.16558,-0.89657c0,-1.66667 0,-3.33333 0,-5c0,-1 0,-2 0,-3c0,-1 -0.37609,-2.07342 0,-3c0.70681,-1.74139 1.41447,-2.7576 2.42078,-3.40437c0.38004,-0.62785 1.10618,-1.27474 2.45937,-1.06656c0.14678,0.02258 0.2835,0.05254 0.41084,0.08892c0.22591,-0.04104 0.46197,-0.08005 0.70902,-0.11799c0.49421,-0.0759 1.09695,-0.29589 1.5,0c1.15719,0.84953 2.03603,2.0422 2.87171,3.20943c1.62705,2.27258 0.73331,8.11753 0,10.58114c-0.15036,0.50514 -0.12732,1.12732 -0.5,1.5c-0.87637,0.87637 -2.05409,1.38743 -3.08114,2.08114c-0.5,0.16667 -1.069,0.80335 -1.5,0.5c-0.30489,-0.21459 -0.59214,-0.45234 -0.86416,-0.70805z" fill="#ff0000"/><path d="M250.55276,146.46456c0.06475,-0.02854 0.12899,-0.0564 0.19238,-0.08226c-0.1154,-0.26971 -0.17648,-0.53026 -0.2088,-0.73051c0.00675,0.27939 0.01268,0.55603 0.01642,0.81276zM247.5753,151.29295c-0.36349,0.28577 -0.86987,0.48482 -1.5753,0.48482c-2.5,0 -2.5,-2.5 -2.5,-2.5c0,-2.66667 0,-5.33333 0,-8c0,-0.33333 0,-0.66667 0,-1c0,-1 -0.37609,-2.07342 0,-3c0.58346,-1.43749 1.18321,-3.6822 2.73223,-3.76777c8.28753,-0.45781 10.26777,6.66264 10.26777,13.26777c0,1.80777 -1.73954,3.31935 -3.20943,4.37171c-0.91405,0.65441 -2.8766,0.59736 -3.79057,0.62829c-0.76291,0.02582 -1.39873,-0.15458 -1.9247,-0.48482zM248.37203,137.82119c0.0603,-0.06164 0.1289,-0.11907 0.20343,-0.173c-0.02897,-0.2533 -0.02465,-0.50937 -0.07546,-0.37042c-0.06481,0.17722 -0.10515,0.35876 -0.12797,0.54342z" fill="#ff0000"/><path d="M277.64989,144.23141c-0.36784,0.31833 -0.89485,0.54636 -1.64989,0.54636c-1.09878,0 -1.71463,-0.48293 -2.05981,-1.02428l-1.70795,-1.70795l1.24847,-1.24847c-0.05475,-2.70471 -0.10196,-4.73109 1.75153,-7.28706c0.27674,-0.38163 0.53386,-1.07023 1,-1c0.6551,0.09869 1.25122,0.23637 1.79368,0.40953c0.4986,-0.22569 1.14673,-0.28769 1.95889,0.06038c1.27665,0.54714 1.54004,1.49957 1.522,2.23808c1.62857,2.04889 1.93041,4.97355 1.9828,8.05979h0.0104v3c0,1.38071 -1.11929,2.5 -2.5,2.5c-1.1246,0 -2.07576,-0.74256 -2.38994,-1.76412l-0.48177,-1.44531c-0.44403,-0.16708 -0.42398,-0.82748 -0.4784,-1.33693z" fill="#ff0000"/><path d="M127.56908,152.19816c0.06909,0.10339 0.13544,0.20731 0.19869,0.31185c0.24201,0.39997 0.43852,0.82452 0.61863,1.25721c0.23782,-0.92123 0.56236,-2.00225 0.11361,-2.48944c-0.25909,-0.28128 -0.00467,1.0639 -0.38675,1.08013c-0.19723,0.00838 -0.37617,-0.05607 -0.54417,-0.15974zM119.92985,147.8136c-0.00606,-1.19952 0.33471,-2.33592 1.30238,-3.30359c1.51184,-0.33333 2.98738,-1 4.53553,-1c0.94281,0 1.33333,1.33333 2,2c1.91296,1.91296 4.35442,3.35294 5.73223,5.76777c1.55163,2.71947 -1.72838,7.19939 -3.5,8.5c-1.51469,1.11199 -3.85701,-0.59744 -5.37171,-1.70943c-0.36752,-0.26981 -0.26825,-0.8115 -0.26168,-1.31847c-0.96774,-0.28151 -1.51035,-1.18586 -1.51035,-1.18586l-1.22798,-1.49567c-0.22931,-0.68794 -0.51269,-1.42268 -0.78183,-2.17847c-0.33386,-0.40168 -0.64885,-0.80874 -0.92659,-1.22535c0,0 -1.02546,-1.53818 0.00998,-2.85093z" fill="#29ff00"/><path d="M152.87171,134.9872c1.90865,5.72595 2.99727,13.3325 -3.66228,16.66228c-0.4714,0.2357 -1.07146,-0.19319 -1.5,-0.5c-1.16723,-0.83568 -2.3599,-1.71452 -3.20943,-2.87171c-0.7522,-1.0246 0.27255,-1.35197 0.12829,-2.20943c-0.58147,-3.45628 -1.12829,-6.22504 -1.12829,-9.79057c0,0 0,-2.5 2.5,-2.5c0.15184,0 0.29446,0.00922 0.42842,0.02655c-0.09168,-0.39868 -0.20769,-0.80925 0.07158,-1.02655v-1.5c0,-1.38071 1.11929,-2.5 2.5,-2.5c1.1246,0 2.07576,0.74256 2.38994,1.76412c0.21988,0.65963 0.62923,1.88768 0.98177,2.94531c0.1999,0.59969 0.38153,1.14458 0.5,1.5z" fill="#29ff00"/><path d="M171.48731,138.00049c0.89021,0.0203 1.67766,0.18375 1.85396,0.66759c0.09213,-0.22866 0.15874,-0.39031 0.15874,-0.39031v1.5c0,2.28261 0.2428,4.63059 -0.62829,6.79057c-0.50669,1.2564 -0.75015,3.42704 -2.10394,3.4772l-1,1c-0.45241,0.45241 -1.07741,0.73223 -1.76777,0.73223c-1.38071,0 -2.5,-1.11929 -2.5,-2.5v-3l0.05191,0c0.20512,-3.07895 0.94809,-5.91496 0.94809,-9c0,0 0,-2.5 2.5,-2.5c2.5,0 2.5,2.5 2.5,2.5c0,0.24284 -0.00443,0.48366 -0.01269,0.72272z" fill="#29ff00"/><path d="M199.42536,149.88411c-0.20175,0.807 -0.60489,1.27835 -1.05306,1.54808l1.1277,-0.15442c0,2.21851 -0.58674,10.50603 -5,8.5c-1.4314,-0.65063 -2.88819,-1.38819 -4,-2.5c-0.70711,-0.70711 0,-2 0,-3c0,-1 0,-2 0,-3c0,0 0,-3 0,-3c0,-0.31597 0.05862,-0.61826 0.16558,-0.89657c0.24366,-0.71716 0.84591,-1.60343 2.33442,-1.60343c1.48852,0 2.09076,0.88627 2.33442,1.60343c0.10696,0.27831 0.16558,0.58059 0.16558,0.89657c0,0.52513 0,1.05025 0,1.57538l2.10634,-3.00074c0,0 2.42536,0.60634 1.81902,3.0317z" fill="#29ff00"/><path d="M226.5,161.77777c0,0.09837 0,0.19674 0,0.29511c0.268,-0.16192 0.63956,-0.30946 0.73223,-0.56288c0.08926,-0.24408 -0.59947,0.49118 -0.73223,0.26777zM225.41178,153.14651c0.10722,-0.35055 0.24236,-0.63746 0.41269,-0.80383c-0.44677,-0.29784 -0.82447,-0.56491 -0.82447,-0.56491h1.5c1.29057,0.56981 2.7345,0.87456 3.87171,1.70943c1.06767,0.78382 1.12829,4.07707 1.12829,5.29057c0,2.1887 0.13572,4.12935 -0.73223,6.26777c-1.98771,4.89719 -7.37369,1.81224 -9.26777,-0.76777c-0.59178,-0.8061 0,-2 0,-3c0,-1 0,-2 0,-3c0,0 0,-3 0,-3c0,-0.31597 0.05862,-0.61826 0.16558,-0.89657c0.24366,-0.71716 0.84591,-1.60343 2.33442,-1.60343c0.60534,0 1.0641,0.14657 1.41178,0.36874zM226.5,158.30297c0.03414,-0.39808 0.04545,-0.75502 0,-1.0252c0,0.0084 0,1.0168 0,1.0252z" fill="#29ff00"/><path d="M272.29057,153.40606c1.07292,1.38647 2.03297,2.94356 2.4772,4.63948c0.11945,0.45602 -0.61837,0.72326 -1,1c-2.73904,1.98624 -4.24931,2.33384 -7.53553,1c-1.32409,-0.53743 -2.97513,-2.97513 -4,-4c0,0 0,0 0,0c-0.21486,-0.21486 -0.39079,-0.46864 -0.5163,-0.74986c-0.33516,-0.67937 -0.53685,-1.73252 0.5163,-2.78567c0.77696,-0.77696 1.55391,-0.87095 2.18078,-0.73223h2.58699v1c1.24243,0 4.41592,-0.50197 5.29057,0.62829z" fill="#29ff00"/><path d="M283.5,141.27777c0,-2.5 2.5,-2.5 2.5,-2.5h1c0.5,0 1.01612,-0.12594 1.5,0l0.82398,0c1.30418,-0.93663 3.39037,-2.93375 4.38545,-2.37171l1.44464,-0.48155c0.2642,-0.09499 0.54902,-0.14675 0.84593,-0.14675c1.38071,0 2.5,1.11929 2.5,2.5c0,0.69036 -0.27982,1.31536 -0.73223,1.76777l0,0l-2,2l-0.15352,-0.15352c-1.49817,0.98195 -2.96033,1.47984 -4.61424,1.71078v0.17497h-3c-0.09932,0 -0.19729,-0.00579 -0.29358,-0.01706c-0.22485,0.01128 -0.4598,0.01706 -0.70642,0.01706h-1c0,0 -2.5,0 -2.5,-2.5z" fill="#29ff00"/><path d="M97.41852,160.37294c-0.51751,0.8076 -1.28275,1.57102 -2.41852,2.40483c-0.48534,0.35631 -3.87035,0.0967 -4.5,0c-1.51751,-0.23306 -4.21092,-0.19798 -4.26777,-1.73223l-1,-1c-0.45241,-0.45241 -0.73223,-1.07741 -0.73223,-1.76777c0,-1.12752 0.74642,-2.0807 1.77208,-2.39237c-0.48779,-2.15299 0.94169,-3.97673 3.72792,-5.10763c2.99197,-1.2144 6.91641,1.34292 8.5,3.5c0.29589,0.40305 0.01691,1.00029 0,1.5c-0.02031,0.59995 -0.05349,1.14655 -0.11375,1.65305c0.07227,0.2444 0.11375,0.52494 0.11375,0.84695c0,1.13735 -0.51742,1.75727 -1.08148,2.09517z" fill="#29ff00"/><path d="" fill="#29ff00"/></g></g></svg>